<svg width="62" height="70" viewBox="0 0 62 70" fill="none" xmlns="http://www.w3.org/2000/svg">
<path d="M30.5432 34.9066C40.1835 34.9066 47.9965 27.0935 47.9965 17.4533C47.9965 7.81307 40.1835 0 30.5432 0C20.903 0 13.09 7.81307 13.09 17.4533C13.09 27.0935 20.903 34.9066 30.5432 34.9066ZM42.7605 39.2699H40.4834C37.4564 40.6607 34.0884 41.4516 30.5432 41.4516C26.998 41.4516 23.6437 40.6607 20.6031 39.2699H18.3259C8.2085 39.2699 0 47.4784 0 57.5958V63.2682C0 66.8815 2.93161 69.8131 6.54498 69.8131H54.5415C58.1549 69.8131 61.0865 66.8815 61.0865 63.2682V57.5958C61.0865 47.4784 52.878 39.2699 42.7605 39.2699Z" fill="#0074D9"/>
</svg>
