<svg width="21" height="17" viewBox="0 0 21 17" fill="none" xmlns="http://www.w3.org/2000/svg">
<path d="M3.70103 4.44378L6.9764 5.6506C8.10518 3.00391 9.74174 0.96713 11.4351 0.012519C8.35955 -0.146204 5.37961 1.21219 3.46302 3.6414C3.24842 3.91406 3.37769 4.32466 3.70103 4.44378ZM7.94319 6.00699L15.5929 8.82539C16.74 4.88555 16.1927 1.306 14.2254 0.58152C13.9881 0.493882 13.7401 0.451685 13.4848 0.451685C11.6237 0.45201 9.37029 2.69685 7.94319 6.00699ZM16.7274 1.96394C16.927 2.49301 17.0748 3.08701 17.1509 3.75533C17.335 5.3747 17.1053 7.26834 16.543 9.17529L19.8347 10.3879C20.1584 10.5071 20.5183 10.2766 20.5266 9.92801C20.601 6.82203 19.1823 3.84395 16.7274 1.96394ZM17.963 14.541H10.2986L12.3817 8.74781L10.4526 8.03696L8.11416 14.5407H0.51323C0.22967 14.5407 0 14.7731 0 15.0604V16.0994C0 16.3863 0.22967 16.619 0.51323 16.619H17.963C18.2466 16.619 18.4763 16.3863 18.4763 16.0994V15.0604C18.4763 14.7734 18.2466 14.541 17.963 14.541Z" fill="black"/>
</svg>
