<svg width="76" height="70" viewBox="0 0 76 70" fill="none" xmlns="http://www.w3.org/2000/svg">
<path d="M64.1532 7.26605H11.5957C8.60875 7.26605 5.74413 8.45535 3.63203 10.5723C1.51994 12.6893 0.333374 15.5605 0.333374 18.5543V48.6564C0.333374 51.6502 1.51994 54.5215 3.63203 56.6384C5.74413 58.7554 8.60875 59.9447 11.5957 59.9447H64.1532C67.1402 59.9447 70.0048 58.7554 72.1169 56.6384C74.229 54.5215 75.4156 51.6502 75.4156 48.6564V18.5543C75.4156 15.5605 74.229 12.6893 72.1169 10.5723C70.0048 8.45535 67.1402 7.26605 64.1532 7.26605ZM34.1204 44.8936H19.1039C18.1083 44.8936 17.1534 44.4972 16.4494 43.7916C15.7453 43.0859 15.3498 42.1288 15.3498 41.1309C15.3498 40.1329 15.7453 39.1759 16.4494 38.4702C17.1534 37.7646 18.1083 37.3681 19.1039 37.3681H34.1204C35.116 37.3681 36.0709 37.7646 36.7749 38.4702C37.4789 39.1759 37.8745 40.1329 37.8745 41.1309C37.8745 42.1288 37.4789 43.0859 36.7749 43.7916C36.0709 44.4972 35.116 44.8936 34.1204 44.8936ZM56.645 44.8936H49.1368C48.1411 44.8936 47.1863 44.4972 46.4822 43.7916C45.7782 43.0859 45.3827 42.1288 45.3827 41.1309C45.3827 40.1329 45.7782 39.1759 46.4822 38.4702C47.1863 37.7646 48.1411 37.3681 49.1368 37.3681H56.645C57.6407 37.3681 58.5955 37.7646 59.2996 38.4702C60.0036 39.1759 60.3991 40.1329 60.3991 41.1309C60.3991 42.1288 60.0036 43.0859 59.2996 43.7916C58.5955 44.4972 57.6407 44.8936 56.645 44.8936ZM67.9073 22.3171H7.84159V18.5543C7.84159 17.5564 8.23711 16.5993 8.94115 15.8937C9.64518 15.188 10.6 14.7916 11.5957 14.7916H64.1532C65.1489 14.7916 66.1038 15.188 66.8078 15.8937C67.5118 16.5993 67.9073 17.5564 67.9073 18.5543V22.3171Z" fill="#0074D9"/>
</svg>
