<?xml version="1.0" encoding="utf-8"?>
<!-- Generator: Adobe Illustrator 27.6.1, SVG Export Plug-In . SVG Version: 6.00 Build 0)  -->
<svg version="1.1" id="Calque_1" xmlns="http://www.w3.org/2000/svg" xmlns:xlink="http://www.w3.org/1999/xlink" x="0px" y="0px"
	 viewBox="0 0 350 120" style="enable-background:new 0 0 350 120;" xml:space="preserve">
<style type="text/css">
	.st0{fill:#1D1D1B;}
	.st1{fill:none;stroke:#1D1D1B;stroke-width:9;stroke-miterlimit:10;}
	.st2{fill:#009EE2;}
</style>
<g>
	<path class="st0" d="M332.94,42.94c-4.18,0.43-16.64,2.14-16.64,2.14l1.46,3l-6.41,5.34l-2.05-4.12l-11.64,14.62
		c0,0-2.75,5.14-5.3-0.32c-0.16-0.8-0.14-1.12,1.56-4.52c1.7-3.4,9.21-19.6,9.21-19.6s-9.69-15.48-5.79-17.9
		c0.81-0.41,5.18-4.28,13.33,13.32c22.23,2.19,22.51,2.33,22.51,2.33s4.26-0.03,5.13,2.81"/>
	<g>
		<path class="st0" d="M16.98,95.32c-3.53-2.44-5.29-5.91-5.29-10.4c0-0.44,0.05-1.11,0.15-2h13.17c-0.15,1.88,0.3,3.36,1.33,4.44
			c1.04,1.09,2.61,1.63,4.74,1.63c1.92,0,3.44-0.42,4.55-1.26c1.11-0.84,1.67-2.02,1.67-3.55c0-1.58-0.7-2.86-2.11-3.85
			c-1.41-0.99-3.59-2.1-6.55-3.33c-2.86-1.18-5.19-2.31-6.99-3.37c-1.8-1.06-3.37-2.5-4.7-4.33s-2-4.12-2-6.88
			c-0.05-3.4,0.79-6.36,2.52-8.88c1.73-2.52,4.12-4.44,7.18-5.77c3.06-1.33,6.56-2,10.51-2c3.55,0,6.71,0.56,9.47,1.67
			c2.76,1.11,4.91,2.71,6.44,4.81c1.53,2.1,2.29,4.58,2.29,7.44c0,0.74-0.03,1.28-0.07,1.63H39.81c0.05-0.2,0.07-0.49,0.07-0.89
			c0-1.38-0.48-2.5-1.44-3.37c-0.96-0.86-2.28-1.3-3.96-1.3c-1.78,0-3.22,0.43-4.33,1.3c-1.11,0.86-1.66,2.03-1.66,3.51
			s0.69,2.73,2.07,3.74c1.38,1.01,3.53,2.18,6.44,3.52c2.91,1.33,5.29,2.57,7.14,3.7s3.44,2.65,4.77,4.55c1.33,1.9,2,4.23,2,6.99
			c0,3.06-0.81,5.8-2.44,8.21c-1.63,2.42-3.97,4.3-7.03,5.66c-3.06,1.36-6.64,2.04-10.73,2.04C25.09,98.98,20.51,97.76,16.98,95.32z
			"/>
		<path class="st0" d="M94.53,60.91c3.13,2.89,4.7,6.82,4.7,11.8c0,1.63-0.12,3.08-0.37,4.37c-0.2,1.14-0.49,2.34-0.89,3.63H69.34
			c-0.05,0.3-0.07,0.77-0.07,1.41c0,2.17,0.59,3.82,1.78,4.96c1.18,1.13,2.76,1.7,4.74,1.7c3.16,0,5.57-1.33,7.25-4h13.47
			c-1.78,4.19-4.66,7.62-8.66,10.29c-4,2.66-8.49,4-13.47,4c-5.33,0-9.58-1.48-12.76-4.44c-3.18-2.96-4.77-6.98-4.77-12.06
			c0-1.53,0.15-3.11,0.44-4.74c0.74-4.29,2.27-8.04,4.59-11.25c2.32-3.21,5.2-5.67,8.66-7.4c3.45-1.73,7.23-2.59,11.32-2.59
			C87.17,56.58,91.4,58.02,94.53,60.91z M86.58,72.86c0-1.97-0.62-3.49-1.85-4.55c-1.23-1.06-2.86-1.59-4.88-1.59
			c-2.17,0-4.08,0.65-5.73,1.96c-1.65,1.31-2.85,3.17-3.59,5.59h15.91C86.53,73.57,86.58,73.1,86.58,72.86z"/>
		<path class="st0" d="M172.16,60.24c2.49,2.34,3.74,5.61,3.74,9.81c0,1.28-0.15,2.71-0.44,4.29l-4.29,24.12h-12.58l4-22.42
			c0.1-0.49,0.15-1.16,0.15-2c0-2.07-0.58-3.65-1.74-4.74c-1.16-1.08-2.77-1.63-4.85-1.63c-2.47,0-4.54,0.73-6.22,2.18
			c-1.68,1.46-2.74,3.51-3.18,6.18l-4,22.42h-12.58l4-22.42c0.1-0.49,0.15-1.16,0.15-2c0-2.07-0.58-3.65-1.74-4.74
			c-1.16-1.08-2.77-1.63-4.85-1.63c-2.47,0-4.54,0.73-6.22,2.18c-1.68,1.46-2.74,3.51-3.18,6.18v-0.37l-4,22.79h-12.65l7.25-41.29
			h12.65l-0.89,5.25c1.58-1.78,3.49-3.17,5.73-4.18c2.24-1.01,4.67-1.52,7.29-1.52c3.16,0,5.83,0.67,8.03,2
			c2.19,1.33,3.76,3.26,4.7,5.77c1.82-2.32,4.09-4.19,6.81-5.62c2.71-1.43,5.55-2.15,8.51-2.15
			C166.2,56.72,169.67,57.9,172.16,60.24z"/>
		<path class="st0" d="M189.44,96.91c-2.76-1.43-4.9-3.45-6.4-6.07c-1.51-2.61-2.26-5.65-2.26-9.1c0-4.69,1.11-8.95,3.33-12.8
			c2.22-3.85,5.28-6.87,9.18-9.07c3.9-2.19,8.24-3.29,13.02-3.29c3.55,0,6.72,0.73,9.51,2.18c2.79,1.46,4.95,3.49,6.48,6.1
			c1.53,2.62,2.29,5.65,2.29,9.1c0,4.74-1.12,9.02-3.37,12.84c-2.25,3.82-5.33,6.82-9.25,8.99c-3.92,2.17-8.28,3.26-13.06,3.26
			C195.36,99.05,192.2,98.34,189.44,96.91z M206.27,86.29c1.65-1.26,2.93-2.89,3.85-4.88c0.91-2,1.37-4.08,1.37-6.25
			c0-2.47-0.67-4.37-2-5.7s-3.01-2-5.03-2c-2.12,0-3.98,0.63-5.59,1.89c-1.6,1.26-2.85,2.9-3.74,4.92
			c-0.89,2.02-1.33,4.14-1.33,6.36c0,2.42,0.64,4.28,1.92,5.59c1.28,1.31,2.93,1.96,4.96,1.96
			C202.76,88.17,204.62,87.55,206.27,86.29z"/>
		<path class="st0" d="M236.58,96.91c-2.76-1.43-4.9-3.45-6.4-6.07c-1.51-2.61-2.26-5.65-2.26-9.1c0-4.69,1.11-8.95,3.33-12.8
			c2.22-3.85,5.28-6.87,9.18-9.07c3.9-2.19,8.24-3.29,13.02-3.29c3.55,0,6.72,0.73,9.51,2.18c2.79,1.46,4.95,3.49,6.48,6.1
			c1.53,2.62,2.29,5.65,2.29,9.1c0,4.74-1.12,9.02-3.37,12.84c-2.25,3.82-5.33,6.82-9.25,8.99c-3.92,2.17-8.28,3.26-13.06,3.26
			C242.5,99.05,239.34,98.34,236.58,96.91z M253.41,86.29c1.65-1.26,2.93-2.89,3.85-4.88c0.91-2,1.37-4.08,1.37-6.25
			c0-2.47-0.67-4.37-2-5.7s-3.01-2-5.03-2c-2.12,0-3.98,0.63-5.59,1.89c-1.6,1.26-2.85,2.9-3.74,4.92
			c-0.89,2.02-1.33,4.14-1.33,6.36c0,2.42,0.64,4.28,1.92,5.59c1.28,1.31,2.93,1.96,4.96,1.96
			C249.9,88.17,251.76,87.55,253.41,86.29z"/>
		<path class="st1" d="M283.95,74.6c1.52,5.61,3.05,11.22,4.57,16.83c6.62-6.37,13.18-12.94,18.43-20.52
			c3.84-5.54,11.54-17.2,6.19-23.83"/>
		<circle class="st2" cx="281" cy="63.82" r="7.09"/>
	</g>
</g>
</svg>
