<svg width="14" height="17" viewBox="0 0 14 17" fill="none" xmlns="http://www.w3.org/2000/svg">
<path d="M6.74861 0.493451C6.77458 0.646017 7.27123 3.561 7.27123 4.67441C7.27123 6.37211 6.36882 7.5829 5.03468 8.06981L5.45342 15.7987C5.47615 16.2435 5.12232 16.62 4.67436 16.62H2.59687C2.15215 16.62 1.79508 16.2467 1.81781 15.7987L2.23655 8.06981C0.899166 7.5829 0 6.36887 0 4.67441C0 3.55776 0.496651 0.646017 0.52262 0.493451C0.626494 -0.165504 1.9931 -0.175242 2.07749 0.529158V5.11263C2.11969 5.223 2.56765 5.21651 2.59687 5.11263C2.64231 4.29137 2.85331 0.59408 2.85655 0.509682C2.96368 -0.165504 4.30755 -0.165504 4.41143 0.509682C4.41792 0.597326 4.62567 4.29137 4.67112 5.11263C4.70033 5.21651 5.15154 5.223 5.19049 5.11263V0.529158C5.27489 -0.171996 6.64474 -0.165504 6.74861 0.493451ZM10.6179 9.76752L10.131 15.776C10.0921 16.2305 10.4524 16.62 10.9068 16.62H12.7247C13.1564 16.62 13.5037 16.2727 13.5037 15.8409V0.779107C13.5037 0.350624 13.1564 4.63948e-05 12.7247 4.63948e-05C10.0466 4.63948e-05 5.53782 5.79431 10.6179 9.76752Z" fill="black"/>
</svg>
