<svg width="59" height="70" viewBox="0 0 59 70" fill="none" xmlns="http://www.w3.org/2000/svg">
<path d="M23.6667 70V53.4333C21.8389 54.0944 19.8945 54.4444 17.8334 54.4444C8.11115 54.4444 0.333374 46.6667 0.333374 36.9444C0.333374 32.0056 2.27782 27.5722 5.62226 24.3833C4.72782 22.2833 4.22226 19.95 4.22226 17.5C4.22226 7.77778 12 0 21.7223 0C27.7889 0 33.1556 3.11111 36.3056 7.77778H37.2778C40.0866 7.77778 42.868 8.33102 45.463 9.40591C48.058 10.4808 50.4159 12.0563 52.402 14.0424C54.3882 16.0286 55.9637 18.3865 57.0386 20.9815C58.1135 23.5765 58.6667 26.3578 58.6667 29.1667C58.6667 31.9755 58.1135 34.7568 57.0386 37.3518C55.9637 39.9469 54.3882 42.3048 52.402 44.2909C50.4159 46.277 48.058 47.8525 45.463 48.9274C42.868 50.0023 40.0866 50.5556 37.2778 50.5556C35.3334 50.5556 33.3889 50.2833 31.4445 49.7389V70H23.6667Z" fill="#0074D9"/>
</svg>
